<?xml version="1.0" encoding="utf-8" standalone="no"?>
<!DOCTYPE svg PUBLIC "-//W3C//DTD SVG 1.1//EN"
  "http://www.w3.org/Graphics/SVG/1.1/DTD/svg11.dtd">
<svg xmlns:xlink="http://www.w3.org/1999/xlink" width="510.23622pt" height="549.92126pt" viewBox="0 0 510.23622 549.92126" xmlns="http://www.w3.org/2000/svg" version="1.1">
 <metadata>
  <rdf:RDF xmlns:dc="http://purl.org/dc/elements/1.1/" xmlns:cc="http://creativecommons.org/ns#" xmlns:rdf="http://www.w3.org/1999/02/22-rdf-syntax-ns#">
   <cc:Work>
    <dc:type rdf:resource="http://purl.org/dc/dcmitype/StillImage"/>
    <dc:date>2026-09-18T16:07:22.200074</dc:date>
    <dc:format>image/svg+xml</dc:format>
    <dc:creator>
     <cc:Agent>
      <dc:title>Matplotlib v3.11.1, https://matplotlib.org/</dc:title>
     </cc:Agent>
    </dc:creator>
   </cc:Work>
  </rdf:RDF>
 </metadata>
 <defs>
  <style type="text/css">*{stroke-linejoin: round; stroke-linecap: butt}</style>
 </defs>
 <g id="figure_1">
  <g id="patch_1">
   <path d="M 0 549.92126 
L 510.23622 549.92126 
L 510.23622 0 
L 0 0 
z
" style="fill: #ffffff"/>
  </g>
  <g id="axes_1">
   <g id="patch_2">
    <path d="M 89.291339 494.929134 
L 428.598425 494.929134 
L 428.598425 57.741732 
L 89.291339 57.741732 
z
" style="fill: #ffffff"/>
   </g>
   <g id="matplotlib.axis_1">
    <g id="xtick_1">
     <g id="line2d_1">
      <path d="M 89.291339 494.929134 
L 89.291339 57.741732 
" clip-path="url(#p3f81d66a26)" style="fill: none; stroke: #dce1e5; stroke-opacity: 0.65; stroke-width: 0.45; stroke-linecap: square"/>
     </g>
     <g id="line2d_2">
      <defs>
       <path id="m7d96587de6" d="M 0 0 
L 0 3 
" style="stroke: #000000; stroke-width: 0.8"/>
      </defs>
      <g>
       <use xlink:href="#m7d96587de6" x="89.291339" y="494.929134" style="stroke: #000000; stroke-width: 0.8"/>
      </g>
     </g>
     <g id="text_1">
      <!-- 0 -->
      <g style="fill: #333333" transform="translate(85.71126 511.826595) scale(0.13 -0.13)">
       <defs>
        <path id="MalgunGothic-13" d="M 278 2206 
Q 278 3425 675 4050 
Q 1072 4675 1819 4675 
Q 3253 4675 3253 2319 
Q 3253 1156 2854 539 
Q 2456 -78 1716 -78 
Q 1016 -78 647 520 
Q 278 1119 278 2206 
z
M 784 2231 
Q 784 344 1769 344 
Q 2747 344 2747 2259 
Q 2747 4250 1794 4250 
Q 784 4250 784 2231 
z
" transform="scale(0.015625)"/>
       </defs>
       <use xlink:href="#MalgunGothic-13"/>
      </g>
     </g>
    </g>
    <g id="xtick_2">
     <g id="line2d_3">
      <path d="M 189.087541 494.929134 
L 189.087541 57.741732 
" clip-path="url(#p3f81d66a26)" style="fill: none; stroke: #dce1e5; stroke-opacity: 0.65; stroke-width: 0.45; stroke-linecap: square"/>
     </g>
     <g id="line2d_4">
      <g>
       <use xlink:href="#m7d96587de6" x="189.087541" y="494.929134" style="stroke: #000000; stroke-width: 0.8"/>
      </g>
     </g>
     <g id="text_2">
      <!-- 20,000 -->
      <g style="fill: #333333" transform="translate(169.765275 511.826595) scale(0.13 -0.13)">
       <defs>
        <path id="MalgunGothic-15" d="M 2519 3372 
Q 2519 3784 2275 4018 
Q 2031 4253 1628 4253 
Q 1341 4253 1053 4104 
Q 766 3956 534 3697 
L 534 4234 
Q 981 4675 1691 4675 
Q 2281 4675 2642 4334 
Q 3003 3994 3003 3416 
Q 3003 2919 2772 2545 
Q 2541 2172 1984 1775 
Q 1459 1406 1254 1215 
Q 1050 1025 967 854 
Q 884 684 884 450 
L 3116 450 
L 3116 0 
L 356 0 
L 356 225 
Q 356 603 461 870 
Q 566 1138 811 1392 
Q 1056 1647 1597 2022 
Q 2091 2363 2305 2670 
Q 2519 2978 2519 3372 
z
" transform="scale(0.015625)"/>
        <path id="MalgunGothic-f" d="M 988 725 
L 472 -850 
L 125 -850 
L 503 725 
L 988 725 
z
" transform="scale(0.015625)"/>
       </defs>
       <use xlink:href="#MalgunGothic-15"/>
       <use xlink:href="#MalgunGothic-13" transform="translate(55.078125 0)"/>
       <use xlink:href="#MalgunGothic-f" transform="translate(110.15625 0)"/>
       <use xlink:href="#MalgunGothic-13" transform="translate(132.03125 0)"/>
       <use xlink:href="#MalgunGothic-13" transform="translate(187.109375 0)"/>
       <use xlink:href="#MalgunGothic-13" transform="translate(242.1875 0)"/>
      </g>
     </g>
    </g>
    <g id="xtick_3">
     <g id="line2d_5">
      <path d="M 288.883742 494.929134 
L 288.883742 57.741732 
" clip-path="url(#p3f81d66a26)" style="fill: none; stroke: #dce1e5; stroke-opacity: 0.65; stroke-width: 0.45; stroke-linecap: square"/>
     </g>
     <g id="line2d_6">
      <g>
       <use xlink:href="#m7d96587de6" x="288.883742" y="494.929134" style="stroke: #000000; stroke-width: 0.8"/>
      </g>
     </g>
     <g id="text_3">
      <!-- 40,000 -->
      <g style="fill: #333333" transform="translate(269.561477 511.826595) scale(0.13 -0.13)">
       <defs>
        <path id="MalgunGothic-17" d="M 2703 4600 
L 2703 1563 
L 3309 1563 
L 3309 1113 
L 2703 1113 
L 2703 0 
L 2213 0 
L 2213 1113 
L 50 1113 
L 50 1534 
Q 728 2297 1295 3109 
Q 1863 3922 2172 4600 
L 2703 4600 
z
M 625 1563 
L 2213 1563 
L 2213 3831 
Q 1613 2788 959 1981 
L 625 1563 
z
" transform="scale(0.015625)"/>
       </defs>
       <use xlink:href="#MalgunGothic-17"/>
       <use xlink:href="#MalgunGothic-13" transform="translate(55.078125 0)"/>
       <use xlink:href="#MalgunGothic-f" transform="translate(110.15625 0)"/>
       <use xlink:href="#MalgunGothic-13" transform="translate(132.03125 0)"/>
       <use xlink:href="#MalgunGothic-13" transform="translate(187.109375 0)"/>
       <use xlink:href="#MalgunGothic-13" transform="translate(242.1875 0)"/>
      </g>
     </g>
    </g>
    <g id="xtick_4">
     <g id="line2d_7">
      <path d="M 388.679944 494.929134 
L 388.679944 57.741732 
" clip-path="url(#p3f81d66a26)" style="fill: none; stroke: #dce1e5; stroke-opacity: 0.65; stroke-width: 0.45; stroke-linecap: square"/>
     </g>
     <g id="line2d_8">
      <g>
       <use xlink:href="#m7d96587de6" x="388.679944" y="494.929134" style="stroke: #000000; stroke-width: 0.8"/>
      </g>
     </g>
     <g id="text_4">
      <!-- 60,000 -->
      <g style="fill: #333333" transform="translate(369.357679 511.826595) scale(0.13 -0.13)">
       <defs>
        <path id="MalgunGothic-19" d="M 2981 4069 
Q 2619 4250 2228 4250 
Q 1591 4250 1228 3689 
Q 866 3128 869 2213 
L 884 2213 
Q 1203 2872 1938 2872 
Q 2547 2872 2903 2478 
Q 3259 2084 3259 1450 
Q 3259 797 2857 359 
Q 2456 -78 1825 -78 
Q 1116 -78 736 478 
Q 356 1034 356 2019 
Q 356 3181 847 3928 
Q 1338 4675 2222 4675 
Q 2700 4675 2981 4544 
L 2981 4069 
z
M 906 1506 
Q 906 1022 1165 683 
Q 1425 344 1844 344 
Q 2247 344 2498 645 
Q 2750 947 2750 1388 
Q 2750 1888 2509 2167 
Q 2269 2447 1838 2447 
Q 1444 2447 1175 2173 
Q 906 1900 906 1506 
z
" transform="scale(0.015625)"/>
       </defs>
       <use xlink:href="#MalgunGothic-19"/>
       <use xlink:href="#MalgunGothic-13" transform="translate(55.078125 0)"/>
       <use xlink:href="#MalgunGothic-f" transform="translate(110.15625 0)"/>
       <use xlink:href="#MalgunGothic-13" transform="translate(132.03125 0)"/>
       <use xlink:href="#MalgunGothic-13" transform="translate(187.109375 0)"/>
       <use xlink:href="#MalgunGothic-13" transform="translate(242.1875 0)"/>
      </g>
     </g>
    </g>
    <g id="text_5">
     <!-- 접수 건수 (건) -->
     <g style="fill: #333333" transform="translate(214.757382 538.386009) scale(0.14 -0.14)">
      <defs>
       <path id="MalgunGothic-8bb" d="M 4878 2297 
L 4878 3706 
L 3469 3706 
L 3469 4122 
L 4878 4122 
L 4878 5466 
L 5344 5466 
L 5344 2297 
L 4878 2297 
z
M 3653 2363 
Q 3253 2581 2837 2978 
Q 2422 3375 2253 3731 
Q 2081 3344 1673 2901 
Q 1266 2459 819 2209 
L 488 2528 
Q 1141 2844 1575 3433 
Q 2009 4022 2009 4659 
L 2009 4781 
L 684 4781 
L 684 5197 
L 3788 5197 
L 3788 4781 
L 2463 4781 
L 2463 4659 
Q 2463 4063 2914 3506 
Q 3366 2950 3969 2700 
L 3653 2363 
z
M 1606 -397 
L 1606 1972 
L 2075 1972 
L 2075 1141 
L 4884 1141 
L 4884 1972 
L 5344 1972 
L 5344 -397 
L 1606 -397 
z
M 4884 722 
L 2075 722 
L 2075 13 
L 4884 13 
L 4884 722 
z
" transform="scale(0.015625)"/>
       <path id="MalgunGothic-739" d="M 5491 2994 
Q 4750 3097 4078 3498 
Q 3406 3900 3200 4275 
Q 2975 3891 2309 3491 
Q 1644 3091 922 2956 
L 634 3347 
Q 1559 3450 2261 3942 
Q 2963 4434 2963 5013 
L 2963 5275 
L 3431 5275 
L 3431 5013 
Q 3431 4431 4118 3948 
Q 4806 3466 5766 3378 
L 5491 2994 
z
M 3431 1838 
L 3431 -563 
L 2963 -563 
L 2963 1838 
L 403 1838 
L 403 2253 
L 5997 2253 
L 5997 1838 
L 3431 1838 
z
" transform="scale(0.015625)"/>
       <path id="MalgunGothic-3" transform="scale(0.015625)"/>
       <path id="MalgunGothic-2a2" d="M 4947 1056 
L 4947 3078 
L 3559 3078 
L 3559 3494 
L 4947 3494 
L 4947 5466 
L 5416 5466 
L 5416 1056 
L 4947 1056 
z
M 3616 5081 
Q 3488 3963 2752 3100 
Q 2016 2238 856 1734 
L 544 2113 
Q 1509 2459 2201 3142 
Q 2894 3825 3066 4666 
L 941 4666 
L 941 5081 
L 3616 5081 
z
M 1722 -325 
L 1722 1575 
L 2188 1575 
L 2188 97 
L 5588 97 
L 5588 -325 
L 1722 -325 
z
" transform="scale(0.015625)"/>
       <path id="MalgunGothic-b" d="M 1438 -1044 
Q 447 88 447 1753 
Q 447 3431 1438 4600 
L 1888 4600 
Q 878 3372 878 1759 
Q 878 153 1881 -1044 
L 1438 -1044 
z
" transform="scale(0.015625)"/>
       <path id="MalgunGothic-c" d="M 81 -1044 
Q 1081 150 1081 1759 
Q 1081 3378 72 4600 
L 525 4600 
Q 1522 3431 1522 1753 
Q 1522 88 525 -1044 
L 81 -1044 
z
" transform="scale(0.015625)"/>
      </defs>
      <use xlink:href="#MalgunGothic-8bb"/>
      <use xlink:href="#MalgunGothic-739" transform="translate(100 0)"/>
      <use xlink:href="#MalgunGothic-3" transform="translate(200 0)"/>
      <use xlink:href="#MalgunGothic-2a2" transform="translate(235.15625 0)"/>
      <use xlink:href="#MalgunGothic-739" transform="translate(335.15625 0)"/>
      <use xlink:href="#MalgunGothic-3" transform="translate(435.15625 0)"/>
      <use xlink:href="#MalgunGothic-b" transform="translate(470.3125 0)"/>
      <use xlink:href="#MalgunGothic-2a2" transform="translate(500.78125 0)"/>
      <use xlink:href="#MalgunGothic-c" transform="translate(600.78125 0)"/>
     </g>
    </g>
   </g>
   <g id="matplotlib.axis_2">
    <g id="ytick_1">
     <g id="line2d_9">
      <defs>
       <path id="m16a810fa9c" d="M 0 0 
L -3 0 
" style="stroke: #000000; stroke-width: 0.8"/>
      </defs>
      <g>
       <use xlink:href="#m16a810fa9c" x="89.291339" y="85.011737" style="stroke: #000000; stroke-width: 0.8"/>
      </g>
     </g>
     <g id="text_6">
      <!-- 부산진구 -->
      <g style="fill: #333333" transform="translate(30.791339 90.563143) scale(0.13 -0.13)">
       <defs>
        <path id="MalgunGothic-655" d="M 1306 2822 
L 1306 5288 
L 1766 5288 
L 1766 4428 
L 4634 4428 
L 4634 5288 
L 5094 5288 
L 5094 2822 
L 1306 2822 
z
M 4634 4019 
L 1766 4019 
L 1766 3231 
L 4634 3231 
L 4634 4019 
z
M 3431 1619 
L 3431 -563 
L 2963 -563 
L 2963 1619 
L 403 1619 
L 403 2041 
L 5997 2041 
L 5997 1619 
L 3431 1619 
z
" transform="scale(0.015625)"/>
        <path id="MalgunGothic-6cf" d="M 5125 3169 
L 5125 1081 
L 4659 1081 
L 4659 5466 
L 5125 5466 
L 5125 3584 
L 6034 3584 
L 6034 3169 
L 5125 3169 
z
M 3597 2081 
Q 3206 2294 2778 2731 
Q 2350 3169 2188 3525 
Q 2038 3125 1603 2642 
Q 1169 2159 750 1925 
L 409 2247 
Q 1041 2553 1492 3173 
Q 1944 3794 1953 4453 
L 1953 5228 
L 2400 5228 
L 2400 4453 
Q 2400 3841 2853 3259 
Q 3306 2678 3909 2419 
L 3597 2081 
z
M 1478 -353 
L 1478 1528 
L 1953 1528 
L 1953 72 
L 5325 72 
L 5325 -353 
L 1478 -353 
z
" transform="scale(0.015625)"/>
        <path id="MalgunGothic-911" d="M 4909 1178 
L 4909 5466 
L 5375 5466 
L 5375 1178 
L 4909 1178 
z
M 3859 2069 
Q 3422 2334 3003 2771 
Q 2584 3209 2419 3566 
Q 2247 3153 1806 2653 
Q 1366 2153 941 1913 
L 609 2234 
Q 1266 2569 1720 3206 
Q 2175 3844 2175 4494 
L 2175 4716 
L 806 4716 
L 806 5141 
L 3981 5141 
L 3981 4716 
L 2631 4716 
L 2631 4494 
Q 2631 3897 3106 3290 
Q 3581 2684 4172 2406 
L 3859 2069 
z
M 1663 -366 
L 1663 1606 
L 2131 1606 
L 2131 44 
L 5538 44 
L 5538 -366 
L 1663 -366 
z
" transform="scale(0.015625)"/>
        <path id="MalgunGothic-2f1" d="M 2913 -563 
L 2913 2228 
L 403 2228 
L 403 2650 
L 4594 2650 
Q 4666 3391 4666 4788 
L 1313 4788 
L 1313 5203 
L 5131 5203 
Q 5131 3656 5044 2650 
L 5997 2650 
L 5997 2228 
L 3378 2228 
L 3378 -563 
L 2913 -563 
z
" transform="scale(0.015625)"/>
       </defs>
       <use xlink:href="#MalgunGothic-655"/>
       <use xlink:href="#MalgunGothic-6cf" transform="translate(100 0)"/>
       <use xlink:href="#MalgunGothic-911" transform="translate(200 0)"/>
       <use xlink:href="#MalgunGothic-2f1" transform="translate(300 0)"/>
      </g>
     </g>
    </g>
    <g id="ytick_2">
     <g id="line2d_10">
      <g>
       <use xlink:href="#m16a810fa9c" x="89.291339" y="110.521563" style="stroke: #000000; stroke-width: 0.8"/>
      </g>
     </g>
     <g id="text_7">
      <!-- 해운대구 -->
      <g style="fill: #333333" transform="translate(30.791339 116.072969) scale(0.13 -0.13)">
       <defs>
        <path id="MalgunGothic-b25" d="M 5119 -563 
L 5119 2272 
L 4403 2272 
L 4403 -372 
L 3944 -372 
L 3944 5350 
L 4403 5350 
L 4403 2688 
L 5119 2688 
L 5119 5466 
L 5588 5466 
L 5588 -563 
L 5119 -563 
z
M 416 3969 
L 416 4384 
L 1753 4384 
L 1753 5319 
L 2222 5319 
L 2222 4384 
L 3559 4384 
L 3559 3969 
L 416 3969 
z
M 2003 897 
Q 1434 897 1046 1270 
Q 659 1644 659 2222 
Q 659 2794 1045 3170 
Q 1431 3547 2003 3547 
Q 2572 3547 2956 3173 
Q 3341 2800 3341 2222 
Q 3341 1638 2955 1267 
Q 2569 897 2003 897 
z
M 2003 3138 
Q 1603 3138 1354 2878 
Q 1106 2619 1106 2222 
Q 1106 1819 1356 1562 
Q 1606 1306 2003 1306 
Q 2394 1306 2647 1561 
Q 2900 1816 2900 2222 
Q 2900 2622 2648 2880 
Q 2397 3138 2003 3138 
z
" transform="scale(0.015625)"/>
        <path id="MalgunGothic-84b" d="M 3200 2956 
Q 2306 2956 1812 3292 
Q 1319 3628 1319 4159 
Q 1319 4697 1812 5033 
Q 2306 5369 3200 5369 
Q 4097 5369 4592 5031 
Q 5088 4694 5088 4159 
Q 5088 3631 4592 3293 
Q 4097 2956 3200 2956 
z
M 3200 4966 
Q 2534 4966 2170 4747 
Q 1806 4528 1806 4159 
Q 1806 3794 2173 3573 
Q 2541 3353 3200 3353 
Q 3859 3353 4226 3573 
Q 4594 3794 4594 4159 
Q 4594 4528 4230 4747 
Q 3866 4966 3200 4966 
z
M 3009 588 
L 3009 1978 
L 403 1978 
L 403 2400 
L 5997 2400 
L 5997 1978 
L 3475 1978 
L 3475 588 
L 3009 588 
z
M 1313 -372 
L 1313 1409 
L 1778 1409 
L 1778 44 
L 5203 44 
L 5203 -372 
L 1313 -372 
z
" transform="scale(0.015625)"/>
        <path id="MalgunGothic-43e" d="M 5069 -563 
L 5069 2572 
L 4294 2572 
L 4294 -378 
L 3834 -378 
L 3834 5344 
L 4294 5344 
L 4294 2988 
L 5069 2988 
L 5069 5466 
L 5538 5466 
L 5538 -563 
L 5069 -563 
z
M 3391 1153 
Q 2516 1063 825 1063 
L 825 4934 
L 3138 4934 
L 3138 4519 
L 1288 4519 
L 1288 1478 
L 1844 1478 
Q 2791 1478 3359 1550 
L 3391 1153 
z
" transform="scale(0.015625)"/>
       </defs>
       <use xlink:href="#MalgunGothic-b25"/>
       <use xlink:href="#MalgunGothic-84b" transform="translate(100 0)"/>
       <use xlink:href="#MalgunGothic-43e" transform="translate(200 0)"/>
       <use xlink:href="#MalgunGothic-2f1" transform="translate(300 0)"/>
      </g>
     </g>
    </g>
    <g id="ytick_3">
     <g id="line2d_11">
      <g>
       <use xlink:href="#m16a810fa9c" x="89.291339" y="136.031389" style="stroke: #000000; stroke-width: 0.8"/>
      </g>
     </g>
     <g id="text_8">
      <!-- 사하구 -->
      <g style="fill: #333333" transform="translate(43.791339 141.582795) scale(0.13 -0.13)">
       <defs>
        <path id="MalgunGothic-6cc" d="M 5094 2600 
L 5094 -563 
L 4628 -563 
L 4628 5466 
L 5094 5466 
L 5094 3016 
L 6138 3016 
L 6138 2600 
L 5094 2600 
z
M 3744 966 
Q 3234 1356 2800 1936 
Q 2366 2516 2234 2950 
Q 2094 2472 1672 1883 
Q 1250 1294 738 891 
L 378 1203 
Q 1116 1703 1556 2479 
Q 1997 3256 1997 4063 
L 1997 5050 
L 2463 5050 
L 2463 4084 
Q 2463 3297 2898 2553 
Q 3334 1809 4072 1331 
L 3744 966 
z
" transform="scale(0.015625)"/>
        <path id="MalgunGothic-b1c" d="M 5094 2278 
L 5094 -563 
L 4628 -563 
L 4628 5466 
L 5094 5466 
L 5094 2694 
L 6113 2694 
L 6113 2278 
L 5094 2278 
z
M 469 4084 
L 469 4506 
L 2022 4506 
L 2022 5466 
L 2491 5466 
L 2491 4506 
L 4050 4506 
L 4050 4084 
L 469 4084 
z
M 2253 934 
Q 1588 934 1166 1318 
Q 744 1703 744 2272 
Q 744 2850 1166 3233 
Q 1588 3616 2259 3616 
Q 2928 3616 3351 3231 
Q 3775 2847 3775 2266 
Q 3775 1694 3351 1314 
Q 2928 934 2253 934 
z
M 2259 3219 
Q 1797 3219 1500 2941 
Q 1203 2663 1203 2272 
Q 1203 1884 1501 1607 
Q 1800 1331 2259 1331 
Q 2719 1331 3017 1607 
Q 3316 1884 3316 2272 
Q 3316 2663 3019 2941 
Q 2722 3219 2259 3219 
z
" transform="scale(0.015625)"/>
       </defs>
       <use xlink:href="#MalgunGothic-6cc"/>
       <use xlink:href="#MalgunGothic-b1c" transform="translate(100 0)"/>
       <use xlink:href="#MalgunGothic-2f1" transform="translate(200 0)"/>
      </g>
     </g>
    </g>
    <g id="ytick_4">
     <g id="line2d_12">
      <g>
       <use xlink:href="#m16a810fa9c" x="89.291339" y="161.541215" style="stroke: #000000; stroke-width: 0.8"/>
      </g>
     </g>
     <g id="text_9">
      <!-- 사상구 -->
      <g style="fill: #333333" transform="translate(43.791339 167.092621) scale(0.13 -0.13)">
       <defs>
        <path id="MalgunGothic-6d8" d="M 5125 3391 
L 5125 1991 
L 4659 1991 
L 4659 5466 
L 5125 5466 
L 5125 3816 
L 6034 3816 
L 6034 3391 
L 5125 3391 
z
M 3603 2316 
Q 3206 2528 2778 2934 
Q 2350 3341 2188 3681 
Q 2022 3291 1609 2852 
Q 1197 2413 750 2163 
L 409 2484 
Q 1072 2806 1512 3397 
Q 1953 3988 1953 4628 
L 1953 5259 
L 2400 5259 
L 2400 4628 
Q 2400 4025 2845 3472 
Q 3291 2919 3909 2656 
L 3603 2316 
z
M 3263 -513 
Q 2322 -513 1811 -186 
Q 1300 141 1300 659 
Q 1300 1175 1812 1500 
Q 2325 1825 3263 1825 
Q 4203 1825 4715 1501 
Q 5228 1178 5228 659 
Q 5228 138 4717 -187 
Q 4206 -513 3263 -513 
z
M 3263 1428 
Q 2563 1428 2180 1215 
Q 1797 1003 1797 659 
Q 1797 309 2181 96 
Q 2566 -116 3263 -116 
Q 3969 -116 4353 98 
Q 4738 313 4738 659 
Q 4738 1000 4353 1214 
Q 3969 1428 3263 1428 
z
" transform="scale(0.015625)"/>
       </defs>
       <use xlink:href="#MalgunGothic-6cc"/>
       <use xlink:href="#MalgunGothic-6d8" transform="translate(100 0)"/>
       <use xlink:href="#MalgunGothic-2f1" transform="translate(200 0)"/>
      </g>
     </g>
    </g>
    <g id="ytick_5">
     <g id="line2d_13">
      <g>
       <use xlink:href="#m16a810fa9c" x="89.291339" y="187.051041" style="stroke: #000000; stroke-width: 0.8"/>
      </g>
     </g>
     <g id="text_10">
      <!-- 북구 -->
      <g style="fill: #333333" transform="translate(56.791339 192.503932) scale(0.13 -0.13)">
       <defs>
        <path id="MalgunGothic-656" d="M 1338 3175 
L 1338 5369 
L 1806 5369 
L 1806 4641 
L 4594 4641 
L 4594 5369 
L 5056 5369 
L 5056 3175 
L 1338 3175 
z
M 4594 4225 
L 1806 4225 
L 1806 3584 
L 4594 3584 
L 4594 4225 
z
M 4622 -563 
L 4622 1013 
L 1209 1013 
L 1209 1428 
L 2963 1428 
L 2963 2150 
L 403 2150 
L 403 2572 
L 5997 2572 
L 5997 2150 
L 3438 2150 
L 3438 1428 
L 5088 1428 
L 5088 -563 
L 4622 -563 
z
" transform="scale(0.015625)"/>
       </defs>
       <use xlink:href="#MalgunGothic-656"/>
       <use xlink:href="#MalgunGothic-2f1" transform="translate(100 0)"/>
      </g>
     </g>
    </g>
    <g id="ytick_6">
     <g id="line2d_14">
      <g>
       <use xlink:href="#m16a810fa9c" x="89.291339" y="212.560868" style="stroke: #000000; stroke-width: 0.8"/>
      </g>
     </g>
     <g id="text_11">
      <!-- 동래구 -->
      <g style="fill: #333333" transform="translate(43.791339 218.112274) scale(0.13 -0.13)">
       <defs>
        <path id="MalgunGothic-470" d="M 403 2119 
L 403 2534 
L 2963 2534 
L 2963 3316 
L 1338 3316 
L 1338 5325 
L 5081 5325 
L 5081 4909 
L 1813 4909 
L 1813 3731 
L 5153 3731 
L 5153 3316 
L 3438 3316 
L 3438 2534 
L 5997 2534 
L 5997 2119 
L 403 2119 
z
M 3200 -513 
Q 2247 -513 1740 -211 
Q 1234 91 1234 603 
Q 1234 1116 1742 1416 
Q 2250 1716 3200 1716 
Q 4150 1716 4658 1416 
Q 5166 1116 5166 603 
Q 5166 91 4659 -211 
Q 4153 -513 3200 -513 
z
M 3200 1319 
Q 2478 1319 2103 1126 
Q 1728 934 1728 603 
Q 1728 272 2104 78 
Q 2481 -116 3200 -116 
Q 3919 -116 4295 78 
Q 4672 272 4672 603 
Q 4672 934 4295 1126 
Q 3919 1319 3200 1319 
z
" transform="scale(0.015625)"/>
        <path id="MalgunGothic-50e" d="M 5088 -563 
L 5088 2431 
L 4319 2431 
L 4319 -378 
L 3859 -378 
L 3859 5344 
L 4319 5344 
L 4319 2847 
L 5088 2847 
L 5088 5466 
L 5556 5466 
L 5556 -563 
L 5088 -563 
z
M 763 819 
L 763 3169 
L 2606 3169 
L 2606 4500 
L 763 4500 
L 763 4916 
L 3072 4916 
L 3072 2766 
L 1228 2766 
L 1228 1228 
L 1916 1228 
Q 3134 1228 3481 1288 
L 3541 897 
Q 3316 847 2852 833 
Q 2388 819 763 819 
z
" transform="scale(0.015625)"/>
       </defs>
       <use xlink:href="#MalgunGothic-470"/>
       <use xlink:href="#MalgunGothic-50e" transform="translate(100 0)"/>
       <use xlink:href="#MalgunGothic-2f1" transform="translate(200 0)"/>
      </g>
     </g>
    </g>
    <g id="ytick_7">
     <g id="line2d_15">
      <g>
       <use xlink:href="#m16a810fa9c" x="89.291339" y="238.070694" style="stroke: #000000; stroke-width: 0.8"/>
      </g>
     </g>
     <g id="text_12">
      <!-- 금정구 -->
      <g style="fill: #333333" transform="translate(43.791339 243.6221) scale(0.13 -0.13)">
       <defs>
        <path id="MalgunGothic-316" d="M 403 2663 
L 403 3084 
L 4563 3084 
Q 4634 3803 4634 4819 
L 1338 4819 
L 1338 5234 
L 5100 5234 
Q 5100 4081 5019 3084 
L 5997 3084 
L 5997 2663 
L 403 2663 
z
M 1350 -416 
L 1350 1856 
L 5075 1856 
L 5075 -416 
L 1350 -416 
z
M 4616 1447 
L 1813 1447 
L 1813 0 
L 4616 0 
L 4616 1447 
z
" transform="scale(0.015625)"/>
        <path id="MalgunGothic-8bd" d="M 4947 1984 
L 4947 3694 
L 3541 3694 
L 3541 4109 
L 4947 4109 
L 4947 5466 
L 5416 5466 
L 5416 1984 
L 4947 1984 
z
M 3653 2328 
Q 3244 2550 2831 2950 
Q 2419 3350 2253 3700 
Q 2075 3303 1659 2858 
Q 1244 2413 819 2175 
L 488 2497 
Q 1134 2806 1571 3393 
Q 2009 3981 2009 4628 
L 2009 4781 
L 684 4781 
L 684 5197 
L 3788 5197 
L 3788 4781 
L 2463 4781 
L 2463 4628 
Q 2463 4025 2916 3472 
Q 3369 2919 3969 2669 
L 3653 2328 
z
M 3566 -475 
Q 2622 -475 2108 -148 
Q 1594 178 1594 697 
Q 1594 1216 2106 1539 
Q 2619 1863 3566 1863 
Q 4513 1863 5025 1539 
Q 5538 1216 5538 697 
Q 5538 178 5023 -148 
Q 4509 -475 3566 -475 
z
M 3566 1466 
Q 2850 1466 2472 1248 
Q 2094 1031 2094 697 
Q 2094 359 2473 143 
Q 2853 -72 3566 -72 
Q 4275 -72 4656 142 
Q 5038 356 5038 697 
Q 5038 1034 4659 1250 
Q 4281 1466 3566 1466 
z
" transform="scale(0.015625)"/>
       </defs>
       <use xlink:href="#MalgunGothic-316"/>
       <use xlink:href="#MalgunGothic-8bd" transform="translate(100 0)"/>
       <use xlink:href="#MalgunGothic-2f1" transform="translate(200 0)"/>
      </g>
     </g>
    </g>
    <g id="ytick_8">
     <g id="line2d_16">
      <g>
       <use xlink:href="#m16a810fa9c" x="89.291339" y="263.58052" style="stroke: #000000; stroke-width: 0.8"/>
      </g>
     </g>
     <g id="text_13">
      <!-- 남구 -->
      <g style="fill: #333333" transform="translate(56.791339 269.131926) scale(0.13 -0.13)">
       <defs>
        <path id="MalgunGothic-3a7" d="M 5125 3578 
L 5125 2119 
L 4659 2119 
L 4659 5466 
L 5125 5466 
L 5125 4000 
L 6034 4000 
L 6034 3578 
L 5125 3578 
z
M 4263 2834 
Q 3741 2694 916 2694 
L 916 5222 
L 1381 5222 
L 1381 3109 
L 1794 3109 
Q 3553 3109 4206 3238 
L 4263 2834 
z
M 1466 -422 
L 1466 1784 
L 5125 1784 
L 5125 -422 
L 1466 -422 
z
M 4666 1369 
L 1925 1369 
L 1925 -6 
L 4666 -6 
L 4666 1369 
z
" transform="scale(0.015625)"/>
       </defs>
       <use xlink:href="#MalgunGothic-3a7"/>
       <use xlink:href="#MalgunGothic-2f1" transform="translate(100 0)"/>
      </g>
     </g>
    </g>
    <g id="ytick_9">
     <g id="line2d_17">
      <g>
       <use xlink:href="#m16a810fa9c" x="89.291339" y="289.090346" style="stroke: #000000; stroke-width: 0.8"/>
      </g>
     </g>
     <g id="text_14">
      <!-- 수영구 -->
      <g style="fill: #333333" transform="translate(43.791339 294.641752) scale(0.13 -0.13)">
       <defs>
        <path id="MalgunGothic-812" d="M 3669 2816 
Q 3209 2247 2406 2247 
Q 1731 2247 1284 2676 
Q 838 3106 838 3781 
Q 838 4459 1284 4895 
Q 1731 5331 2406 5331 
Q 3231 5331 3694 4722 
L 4959 4722 
L 4959 5466 
L 5428 5466 
L 5428 1913 
L 4959 1913 
L 4959 2816 
L 3669 2816 
z
M 2406 4922 
Q 1919 4922 1609 4606 
Q 1300 4291 1300 3781 
Q 1300 3275 1609 2965 
Q 1919 2656 2406 2656 
Q 2894 2656 3206 2961 
Q 3519 3266 3519 3781 
Q 3519 4300 3206 4611 
Q 2894 4922 2406 4922 
z
M 3891 3225 
L 4959 3225 
L 4959 4313 
L 3903 4313 
Q 3988 4066 3988 3781 
Q 3988 3516 3891 3225 
z
M 3616 -506 
Q 2669 -506 2156 -182 
Q 1644 141 1644 659 
Q 1644 1178 2156 1501 
Q 2669 1825 3616 1825 
Q 4563 1825 5075 1500 
Q 5588 1175 5588 659 
Q 5588 144 5075 -181 
Q 4563 -506 3616 -506 
z
M 3616 1428 
Q 2909 1428 2523 1214 
Q 2138 1000 2138 659 
Q 2138 319 2523 105 
Q 2909 -109 3616 -109 
Q 4325 -109 4706 105 
Q 5088 319 5088 659 
Q 5088 1000 4706 1214 
Q 4325 1428 3616 1428 
z
" transform="scale(0.015625)"/>
       </defs>
       <use xlink:href="#MalgunGothic-739"/>
       <use xlink:href="#MalgunGothic-812" transform="translate(100 0)"/>
       <use xlink:href="#MalgunGothic-2f1" transform="translate(200 0)"/>
      </g>
     </g>
    </g>
    <g id="ytick_10">
     <g id="line2d_18">
      <g>
       <use xlink:href="#m16a810fa9c" x="89.291339" y="314.600172" style="stroke: #000000; stroke-width: 0.8"/>
      </g>
     </g>
     <g id="text_15">
      <!-- 연제구 -->
      <g style="fill: #333333" transform="translate(43.791339 320.151579) scale(0.13 -0.13)">
       <defs>
        <path id="MalgunGothic-809" d="M 3591 2528 
Q 3134 2041 2413 2041 
Q 1734 2041 1282 2489 
Q 831 2938 831 3647 
Q 831 4369 1284 4811 
Q 1738 5253 2413 5253 
Q 3266 5253 3725 4603 
L 4959 4603 
L 4959 5466 
L 5428 5466 
L 5428 1063 
L 4959 1063 
L 4959 2528 
L 3591 2528 
z
M 2413 4844 
Q 1919 4844 1609 4520 
Q 1300 4197 1300 3647 
Q 1300 3097 1609 2773 
Q 1919 2450 2413 2450 
Q 2916 2450 3228 2775 
Q 3541 3100 3541 3647 
Q 3541 4194 3228 4519 
Q 2916 4844 2413 4844 
z
M 3859 2938 
L 4959 2938 
L 4959 4191 
L 3916 4191 
Q 4000 3931 4000 3647 
Q 4000 3263 3859 2938 
z
M 1703 -378 
L 1703 1478 
L 2169 1478 
L 2169 44 
L 5575 44 
L 5575 -378 
L 1703 -378 
z
" transform="scale(0.015625)"/>
        <path id="MalgunGothic-8bf" d="M 5038 -563 
L 5038 5466 
L 5503 5466 
L 5503 -563 
L 5038 -563 
z
M 3944 -378 
L 3944 2975 
L 2894 2975 
L 2894 3391 
L 3944 3391 
L 3944 5344 
L 4403 5344 
L 4403 -378 
L 3944 -378 
z
M 3116 850 
Q 2306 1647 1984 2734 
Q 1881 2291 1529 1722 
Q 1178 1153 775 769 
L 409 1063 
Q 941 1438 1350 2248 
Q 1759 3059 1759 3834 
L 1759 4525 
L 634 4525 
L 634 4941 
L 3359 4941 
L 3359 4525 
L 2222 4525 
L 2222 3828 
Q 2222 3075 2589 2328 
Q 2956 1581 3469 1153 
L 3116 850 
z
" transform="scale(0.015625)"/>
       </defs>
       <use xlink:href="#MalgunGothic-809"/>
       <use xlink:href="#MalgunGothic-8bf" transform="translate(100 0)"/>
       <use xlink:href="#MalgunGothic-2f1" transform="translate(200 0)"/>
      </g>
     </g>
    </g>
    <g id="ytick_11">
     <g id="line2d_19">
      <g>
       <use xlink:href="#m16a810fa9c" x="89.291339" y="340.109999" style="stroke: #000000; stroke-width: 0.8"/>
      </g>
     </g>
     <g id="text_16">
      <!-- 기장군 -->
      <g style="fill: #333333" transform="translate(43.791339 345.661405) scale(0.13 -0.13)">
       <defs>
        <path id="MalgunGothic-31b" d="M 4884 -563 
L 4884 5466 
L 5350 5466 
L 5350 -563 
L 4884 -563 
z
M 3675 4909 
Q 3653 3656 2956 2611 
Q 2259 1566 959 844 
L 603 1222 
Q 1559 1619 2293 2478 
Q 3028 3338 3175 4494 
L 850 4494 
L 850 4909 
L 3675 4909 
z
" transform="scale(0.015625)"/>
        <path id="MalgunGothic-8a0" d="M 5125 3391 
L 5125 1991 
L 4659 1991 
L 4659 5466 
L 5125 5466 
L 5125 3816 
L 6034 3816 
L 6034 3391 
L 5125 3391 
z
M 3603 2316 
Q 3206 2528 2778 2940 
Q 2350 3353 2188 3694 
Q 2016 3300 1600 2853 
Q 1184 2406 750 2163 
L 409 2484 
Q 1072 2806 1512 3397 
Q 1953 3988 1953 4628 
L 1953 4781 
L 622 4781 
L 622 5197 
L 3731 5197 
L 3731 4781 
L 2400 4781 
L 2400 4628 
Q 2400 4025 2845 3472 
Q 3291 2919 3909 2656 
L 3603 2316 
z
M 3263 -513 
Q 2322 -513 1811 -186 
Q 1300 141 1300 659 
Q 1300 1175 1812 1500 
Q 2325 1825 3263 1825 
Q 4203 1825 4715 1501 
Q 5228 1178 5228 659 
Q 5228 138 4717 -187 
Q 4206 -513 3263 -513 
z
M 3263 1428 
Q 2563 1428 2180 1215 
Q 1797 1003 1797 659 
Q 1797 309 2181 96 
Q 2566 -116 3263 -116 
Q 3969 -116 4353 98 
Q 4738 313 4738 659 
Q 4738 1000 4353 1214 
Q 3969 1428 3263 1428 
z
" transform="scale(0.015625)"/>
        <path id="MalgunGothic-2f3" d="M 3003 703 
L 3003 2497 
L 403 2497 
L 403 2919 
L 4581 2919 
Q 4634 3438 4634 4788 
L 1338 4788 
L 1338 5203 
L 5100 5203 
Q 5100 3819 5038 2919 
L 5997 2919 
L 5997 2497 
L 3469 2497 
L 3469 703 
L 3003 703 
z
M 1338 -300 
L 1338 1638 
L 1806 1638 
L 1806 122 
L 5216 122 
L 5216 -300 
L 1338 -300 
z
" transform="scale(0.015625)"/>
       </defs>
       <use xlink:href="#MalgunGothic-31b"/>
       <use xlink:href="#MalgunGothic-8a0" transform="translate(100 0)"/>
       <use xlink:href="#MalgunGothic-2f3" transform="translate(200 0)"/>
      </g>
     </g>
    </g>
    <g id="ytick_12">
     <g id="line2d_20">
      <g>
       <use xlink:href="#m16a810fa9c" x="89.291339" y="365.619825" style="stroke: #000000; stroke-width: 0.8"/>
      </g>
     </g>
     <g id="text_17">
      <!-- 강서구 -->
      <g style="fill: #333333" transform="translate(43.791339 371.171231) scale(0.13 -0.13)">
       <defs>
        <path id="MalgunGothic-288" d="M 5125 3372 
L 5125 2009 
L 4659 2009 
L 4659 5466 
L 5125 5466 
L 5125 3809 
L 6034 3809 
L 6034 3372 
L 5125 3372 
z
M 3513 5113 
Q 3397 3850 2551 3039 
Q 1706 2228 794 1869 
L 459 2247 
Q 1388 2541 2108 3225 
Q 2828 3909 2963 4697 
L 831 4697 
L 831 5113 
L 3513 5113 
z
M 3263 -453 
Q 2325 -453 1806 -128 
Q 1288 197 1288 716 
Q 1288 1231 1803 1556 
Q 2319 1881 3263 1881 
Q 4216 1881 4731 1557 
Q 5247 1234 5247 716 
Q 5247 197 4726 -128 
Q 4206 -453 3263 -453 
z
M 3263 1478 
Q 2559 1478 2168 1265 
Q 1778 1053 1778 716 
Q 1778 378 2162 164 
Q 2547 -50 3263 -50 
Q 3981 -50 4365 164 
Q 4750 378 4750 716 
Q 4750 1053 4359 1265 
Q 3969 1478 3263 1478 
z
" transform="scale(0.015625)"/>
        <path id="MalgunGothic-6f0" d="M 4947 -563 
L 4947 3072 
L 3541 3072 
L 3541 3488 
L 4947 3488 
L 4947 5466 
L 5416 5466 
L 5416 -563 
L 4947 -563 
z
M 3775 966 
Q 3269 1353 2826 1939 
Q 2384 2525 2266 2950 
Q 2122 2463 1694 1872 
Q 1266 1281 763 891 
L 403 1203 
Q 1147 1703 1587 2479 
Q 2028 3256 2028 4063 
L 2028 5050 
L 2491 5050 
L 2491 4084 
Q 2491 3303 2927 2556 
Q 3363 1809 4103 1331 
L 3775 966 
z
" transform="scale(0.015625)"/>
       </defs>
       <use xlink:href="#MalgunGothic-288"/>
       <use xlink:href="#MalgunGothic-6f0" transform="translate(100 0)"/>
       <use xlink:href="#MalgunGothic-2f1" transform="translate(200 0)"/>
      </g>
     </g>
    </g>
    <g id="ytick_13">
     <g id="line2d_21">
      <g>
       <use xlink:href="#m16a810fa9c" x="89.291339" y="391.129651" style="stroke: #000000; stroke-width: 0.8"/>
      </g>
     </g>
     <g id="text_18">
      <!-- 영도구 -->
      <g style="fill: #333333" transform="translate(43.791339 396.681057) scale(0.13 -0.13)">
       <defs>
        <path id="MalgunGothic-466" d="M 403 372 
L 403 788 
L 2963 788 
L 2963 2181 
L 1350 2181 
L 1350 4897 
L 5050 4897 
L 5050 4481 
L 1819 4481 
L 1819 2600 
L 5147 2600 
L 5147 2181 
L 3438 2181 
L 3438 788 
L 5997 788 
L 5997 372 
L 403 372 
z
" transform="scale(0.015625)"/>
       </defs>
       <use xlink:href="#MalgunGothic-812"/>
       <use xlink:href="#MalgunGothic-466" transform="translate(100 0)"/>
       <use xlink:href="#MalgunGothic-2f1" transform="translate(200 0)"/>
      </g>
     </g>
    </g>
    <g id="ytick_14">
     <g id="line2d_22">
      <g>
       <use xlink:href="#m16a810fa9c" x="89.291339" y="416.639477" style="stroke: #000000; stroke-width: 0.8"/>
      </g>
     </g>
     <g id="text_19">
      <!-- 서구 -->
      <g style="fill: #333333" transform="translate(56.791339 422.190883) scale(0.13 -0.13)">
       <use xlink:href="#MalgunGothic-6f0"/>
       <use xlink:href="#MalgunGothic-2f1" transform="translate(100 0)"/>
      </g>
     </g>
    </g>
    <g id="ytick_15">
     <g id="line2d_23">
      <g>
       <use xlink:href="#m16a810fa9c" x="89.291339" y="442.149303" style="stroke: #000000; stroke-width: 0.8"/>
      </g>
     </g>
     <g id="text_20">
      <!-- 동구 -->
      <g style="fill: #333333" transform="translate(56.791339 447.557507) scale(0.13 -0.13)">
       <use xlink:href="#MalgunGothic-470"/>
       <use xlink:href="#MalgunGothic-2f1" transform="translate(100 0)"/>
      </g>
     </g>
    </g>
    <g id="ytick_16">
     <g id="line2d_24">
      <g>
       <use xlink:href="#m16a810fa9c" x="89.291339" y="467.65913" style="stroke: #000000; stroke-width: 0.8"/>
      </g>
     </g>
     <g id="text_21">
      <!-- 중구 -->
      <g style="fill: #333333" transform="translate(56.791339 473.041942) scale(0.13 -0.13)">
       <defs>
        <path id="MalgunGothic-8f8" d="M 5459 3272 
Q 4750 3372 4097 3714 
Q 3444 4056 3206 4422 
Q 2984 4094 2328 3736 
Q 1672 3378 972 3278 
L 697 3653 
Q 1478 3713 2139 4083 
Q 2800 4453 2950 4878 
L 1025 4878 
L 1025 5300 
L 5375 5300 
L 5375 4878 
L 3456 4878 
Q 3597 4456 4251 4090 
Q 4906 3725 5703 3653 
L 5459 3272 
z
M 2963 1734 
L 2963 2431 
L 403 2431 
L 403 2853 
L 5997 2853 
L 5997 2431 
L 3438 2431 
L 3438 1734 
Q 4269 1697 4700 1400 
Q 5131 1103 5131 628 
Q 5131 100 4634 -200 
Q 4138 -500 3200 -500 
Q 2263 -500 1766 -200 
Q 1269 100 1269 628 
Q 1269 1103 1700 1400 
Q 2131 1697 2963 1734 
z
M 3200 1344 
Q 2481 1344 2117 1155 
Q 1753 966 1753 628 
Q 1753 284 2123 90 
Q 2494 -103 3200 -103 
Q 3903 -103 4275 90 
Q 4647 284 4647 628 
Q 4647 966 4281 1155 
Q 3916 1344 3200 1344 
z
" transform="scale(0.015625)"/>
       </defs>
       <use xlink:href="#MalgunGothic-8f8"/>
       <use xlink:href="#MalgunGothic-2f1" transform="translate(100 0)"/>
      </g>
     </g>
    </g>
   </g>
   <g id="patch_3">
    <path d="M 89.291339 77.613887 
L 196.267877 77.613887 
L 196.267877 92.409586 
L 89.291339 92.409586 
z
" clip-path="url(#p3f81d66a26)" style="fill: #376c8a"/>
   </g>
   <g id="patch_4">
    <path d="M 89.291339 103.123713 
L 189.022673 103.123713 
L 189.022673 117.919412 
L 89.291339 117.919412 
z
" clip-path="url(#p3f81d66a26)" style="fill: #376c8a"/>
   </g>
   <g id="patch_5">
    <path d="M 89.291339 128.633539 
L 171.842757 128.633539 
L 171.842757 143.429239 
L 89.291339 143.429239 
z
" clip-path="url(#p3f81d66a26)" style="fill: #376c8a"/>
   </g>
   <g id="patch_6">
    <path d="M 89.291339 154.143366 
L 160.825256 154.143366 
L 160.825256 168.939065 
L 89.291339 168.939065 
z
" clip-path="url(#p3f81d66a26)" style="fill: #376c8a"/>
   </g>
   <g id="patch_7">
    <path d="M 89.291339 179.653192 
L 163.824132 179.653192 
L 163.824132 194.448891 
L 89.291339 194.448891 
z
" clip-path="url(#p3f81d66a26)" style="fill: #376c8a"/>
   </g>
   <g id="patch_8">
    <path d="M 89.291339 205.163018 
L 154.872413 205.163018 
L 154.872413 219.958717 
L 89.291339 219.958717 
z
" clip-path="url(#p3f81d66a26)" style="fill: #376c8a"/>
   </g>
   <g id="patch_9">
    <path d="M 89.291339 230.672844 
L 153.714777 230.672844 
L 153.714777 245.468543 
L 89.291339 245.468543 
z
" clip-path="url(#p3f81d66a26)" style="fill: #376c8a"/>
   </g>
   <g id="patch_10">
    <path d="M 89.291339 256.18267 
L 153.540133 256.18267 
L 153.540133 270.97837 
L 89.291339 270.97837 
z
" clip-path="url(#p3f81d66a26)" style="fill: #376c8a"/>
   </g>
   <g id="patch_11">
    <path d="M 89.291339 281.692497 
L 141.429864 281.692497 
L 141.429864 296.488196 
L 89.291339 296.488196 
z
" clip-path="url(#p3f81d66a26)" style="fill: #376c8a"/>
   </g>
   <g id="patch_12">
    <path d="M 89.291339 307.202323 
L 141.345038 307.202323 
L 141.345038 321.998022 
L 89.291339 321.998022 
z
" clip-path="url(#p3f81d66a26)" style="fill: #376c8a"/>
   </g>
   <g id="patch_13">
    <path d="M 89.291339 332.712149 
L 136.644636 332.712149 
L 136.644636 347.507848 
L 89.291339 347.507848 
z
" clip-path="url(#p3f81d66a26)" style="fill: #376c8a"/>
   </g>
   <g id="patch_14">
    <path d="M 89.291339 358.221975 
L 125.267869 358.221975 
L 125.267869 373.017674 
L 89.291339 373.017674 
z
" clip-path="url(#p3f81d66a26)" style="fill: #376c8a"/>
   </g>
   <g id="patch_15">
    <path d="M 89.291339 383.731801 
L 130.053097 383.731801 
L 130.053097 398.527501 
L 89.291339 398.527501 
z
" clip-path="url(#p3f81d66a26)" style="fill: #376c8a"/>
   </g>
   <g id="patch_16">
    <path d="M 89.291339 409.241628 
L 126.545261 409.241628 
L 126.545261 424.037327 
L 89.291339 424.037327 
z
" clip-path="url(#p3f81d66a26)" style="fill: #376c8a"/>
   </g>
   <g id="patch_17">
    <path d="M 89.291339 434.751454 
L 123.68111 434.751454 
L 123.68111 449.547153 
L 89.291339 449.547153 
z
" clip-path="url(#p3f81d66a26)" style="fill: #376c8a"/>
   </g>
   <g id="patch_18">
    <path d="M 89.291339 460.26128 
L 111.251493 460.26128 
L 111.251493 475.056979 
L 89.291339 475.056979 
z
" clip-path="url(#p3f81d66a26)" style="fill: #376c8a"/>
   </g>
   <g id="patch_19">
    <path d="M 196.267877 77.613887 
L 308.144409 77.613887 
L 308.144409 92.409586 
L 196.267877 92.409586 
z
" clip-path="url(#p3f81d66a26)" style="fill: #333333"/>
   </g>
   <g id="patch_20">
    <path d="M 189.022673 103.123713 
L 286.164296 103.123713 
L 286.164296 117.919412 
L 189.022673 117.919412 
z
" clip-path="url(#p3f81d66a26)" style="fill: #333333"/>
   </g>
   <g id="patch_21">
    <path d="M 171.842757 128.633539 
L 253.061896 128.633539 
L 253.061896 143.429239 
L 171.842757 143.429239 
z
" clip-path="url(#p3f81d66a26)" style="fill: #333333"/>
   </g>
   <g id="patch_22">
    <path d="M 160.825256 154.143366 
L 232.099704 154.143366 
L 232.099704 168.939065 
L 160.825256 168.939065 
z
" clip-path="url(#p3f81d66a26)" style="fill: #333333"/>
   </g>
   <g id="patch_23">
    <path d="M 163.824132 179.653192 
L 236.375971 179.653192 
L 236.375971 194.448891 
L 163.824132 194.448891 
z
" clip-path="url(#p3f81d66a26)" style="fill: #333333"/>
   </g>
   <g id="patch_24">
    <path d="M 154.872413 205.163018 
L 218.702063 205.163018 
L 218.702063 219.958717 
L 154.872413 219.958717 
z
" clip-path="url(#p3f81d66a26)" style="fill: #333333"/>
   </g>
   <g id="patch_25">
    <path d="M 153.714777 230.672844 
L 215.099421 230.672844 
L 215.099421 245.468543 
L 153.714777 245.468543 
z
" clip-path="url(#p3f81d66a26)" style="fill: #333333"/>
   </g>
   <g id="patch_26">
    <path d="M 153.540133 256.18267 
L 214.640358 256.18267 
L 214.640358 270.97837 
L 153.540133 270.97837 
z
" clip-path="url(#p3f81d66a26)" style="fill: #333333"/>
   </g>
   <g id="patch_27">
    <path d="M 141.429864 281.692497 
L 193.688145 281.692497 
L 193.688145 296.488196 
L 141.429864 296.488196 
z
" clip-path="url(#p3f81d66a26)" style="fill: #333333"/>
   </g>
   <g id="patch_28">
    <path d="M 141.345038 307.202323 
L 192.859837 307.202323 
L 192.859837 321.998022 
L 141.345038 321.998022 
z
" clip-path="url(#p3f81d66a26)" style="fill: #333333"/>
   </g>
   <g id="patch_29">
    <path d="M 136.644636 332.712149 
L 182.605777 332.712149 
L 182.605777 347.507848 
L 136.644636 347.507848 
z
" clip-path="url(#p3f81d66a26)" style="fill: #333333"/>
   </g>
   <g id="patch_30">
    <path d="M 125.267869 358.221975 
L 160.675562 358.221975 
L 160.675562 373.017674 
L 125.267869 373.017674 
z
" clip-path="url(#p3f81d66a26)" style="fill: #333333"/>
   </g>
   <g id="patch_31">
    <path d="M 130.053097 383.731801 
L 169.118321 383.731801 
L 169.118321 398.527501 
L 130.053097 398.527501 
z
" clip-path="url(#p3f81d66a26)" style="fill: #333333"/>
   </g>
   <g id="patch_32">
    <path d="M 126.545261 409.241628 
L 163.290222 409.241628 
L 163.290222 424.037327 
L 126.545261 424.037327 
z
" clip-path="url(#p3f81d66a26)" style="fill: #333333"/>
   </g>
   <g id="patch_33">
    <path d="M 123.68111 434.751454 
L 159.812325 434.751454 
L 159.812325 449.547153 
L 123.68111 449.547153 
z
" clip-path="url(#p3f81d66a26)" style="fill: #333333"/>
   </g>
   <g id="patch_34">
    <path d="M 111.251493 460.26128 
L 136.180584 460.26128 
L 136.180584 475.056979 
L 111.251493 475.056979 
z
" clip-path="url(#p3f81d66a26)" style="fill: #333333"/>
   </g>
   <g id="patch_35">
    <path d="M 308.144409 77.613887 
L 332.56454 77.613887 
L 332.56454 92.409586 
L 308.144409 92.409586 
z
" clip-path="url(#p3f81d66a26)" style="fill: #b97937"/>
   </g>
   <g id="patch_36">
    <path d="M 286.164296 103.123713 
L 307.470785 103.123713 
L 307.470785 117.919412 
L 286.164296 117.919412 
z
" clip-path="url(#p3f81d66a26)" style="fill: #b97937"/>
   </g>
   <g id="patch_37">
    <path d="M 253.061896 128.633539 
L 271.184886 128.633539 
L 271.184886 143.429239 
L 253.061896 143.429239 
z
" clip-path="url(#p3f81d66a26)" style="fill: #b97937"/>
   </g>
   <g id="patch_38">
    <path d="M 232.099704 154.143366 
L 247.578094 154.143366 
L 247.578094 168.939065 
L 232.099704 168.939065 
z
" clip-path="url(#p3f81d66a26)" style="fill: #b97937"/>
   </g>
   <g id="patch_39">
    <path d="M 236.375971 179.653192 
L 251.62483 179.653192 
L 251.62483 194.448891 
L 236.375971 194.448891 
z
" clip-path="url(#p3f81d66a26)" style="fill: #b97937"/>
   </g>
   <g id="patch_40">
    <path d="M 218.702063 205.163018 
L 232.853165 205.163018 
L 232.853165 219.958717 
L 218.702063 219.958717 
z
" clip-path="url(#p3f81d66a26)" style="fill: #b97937"/>
   </g>
   <g id="patch_41">
    <path d="M 215.099421 230.672844 
L 228.741561 230.672844 
L 228.741561 245.468543 
L 215.099421 245.468543 
z
" clip-path="url(#p3f81d66a26)" style="fill: #b97937"/>
   </g>
   <g id="patch_42">
    <path d="M 214.640358 256.18267 
L 228.871296 256.18267 
L 228.871296 270.97837 
L 214.640358 270.97837 
z
" clip-path="url(#p3f81d66a26)" style="fill: #b97937"/>
   </g>
   <g id="patch_43">
    <path d="M 193.688145 281.692497 
L 205.91318 281.692497 
L 205.91318 296.488196 
L 193.688145 296.488196 
z
" clip-path="url(#p3f81d66a26)" style="fill: #b97937"/>
   </g>
   <g id="patch_44">
    <path d="M 192.859837 307.202323 
L 204.08192 307.202323 
L 204.08192 321.998022 
L 192.859837 321.998022 
z
" clip-path="url(#p3f81d66a26)" style="fill: #b97937"/>
   </g>
   <g id="patch_45">
    <path d="M 182.605777 332.712149 
L 193.767982 332.712149 
L 193.767982 347.507848 
L 182.605777 347.507848 
z
" clip-path="url(#p3f81d66a26)" style="fill: #b97937"/>
   </g>
   <g id="patch_46">
    <path d="M 160.675562 358.221975 
L 170.740009 358.221975 
L 170.740009 373.017674 
L 160.675562 373.017674 
z
" clip-path="url(#p3f81d66a26)" style="fill: #b97937"/>
   </g>
   <g id="patch_47">
    <path d="M 169.118321 383.731801 
L 177.835519 383.731801 
L 177.835519 398.527501 
L 169.118321 398.527501 
z
" clip-path="url(#p3f81d66a26)" style="fill: #b97937"/>
   </g>
   <g id="patch_48">
    <path d="M 163.290222 409.241628 
L 171.658134 409.241628 
L 171.658134 424.037327 
L 163.290222 424.037327 
z
" clip-path="url(#p3f81d66a26)" style="fill: #b97937"/>
   </g>
   <g id="patch_49">
    <path d="M 159.812325 434.751454 
L 167.646327 434.751454 
L 167.646327 449.547153 
L 159.812325 449.547153 
z
" clip-path="url(#p3f81d66a26)" style="fill: #b97937"/>
   </g>
   <g id="patch_50">
    <path d="M 136.180584 460.26128 
L 142.163366 460.26128 
L 142.163366 475.056979 
L 136.180584 475.056979 
z
" clip-path="url(#p3f81d66a26)" style="fill: #b97937"/>
   </g>
   <g id="patch_51">
    <path d="M 332.56454 77.613887 
L 408.933584 77.613887 
L 408.933584 92.409586 
L 332.56454 92.409586 
z
" clip-path="url(#p3f81d66a26)" style="fill: #c5cdd2"/>
   </g>
   <g id="patch_52">
    <path d="M 307.470785 103.123713 
L 373.346258 103.123713 
L 373.346258 117.919412 
L 307.470785 117.919412 
z
" clip-path="url(#p3f81d66a26)" style="fill: #c5cdd2"/>
   </g>
   <g id="patch_53">
    <path d="M 271.184886 128.633539 
L 329.181449 128.633539 
L 329.181449 143.429239 
L 271.184886 143.429239 
z
" clip-path="url(#p3f81d66a26)" style="fill: #c5cdd2"/>
   </g>
   <g id="patch_54">
    <path d="M 247.578094 154.143366 
L 297.600941 154.143366 
L 297.600941 168.939065 
L 247.578094 168.939065 
z
" clip-path="url(#p3f81d66a26)" style="fill: #c5cdd2"/>
   </g>
   <g id="patch_55">
    <path d="M 251.62483 179.653192 
L 294.896464 179.653192 
L 294.896464 194.448891 
L 251.62483 194.448891 
z
" clip-path="url(#p3f81d66a26)" style="fill: #c5cdd2"/>
   </g>
   <g id="patch_56">
    <path d="M 232.853165 205.163018 
L 275.042009 205.163018 
L 275.042009 219.958717 
L 232.853165 219.958717 
z
" clip-path="url(#p3f81d66a26)" style="fill: #c5cdd2"/>
   </g>
   <g id="patch_57">
    <path d="M 228.741561 230.672844 
L 273.17582 230.672844 
L 273.17582 245.468543 
L 228.741561 245.468543 
z
" clip-path="url(#p3f81d66a26)" style="fill: #c5cdd2"/>
   </g>
   <g id="patch_58">
    <path d="M 228.871296 256.18267 
L 270.521241 256.18267 
L 270.521241 270.97837 
L 228.871296 270.97837 
z
" clip-path="url(#p3f81d66a26)" style="fill: #c5cdd2"/>
   </g>
   <g id="patch_59">
    <path d="M 205.91318 281.692497 
L 244.050299 281.692497 
L 244.050299 296.488196 
L 205.91318 296.488196 
z
" clip-path="url(#p3f81d66a26)" style="fill: #c5cdd2"/>
   </g>
   <g id="patch_60">
    <path d="M 204.08192 307.202323 
L 237.229228 307.202323 
L 237.229228 321.998022 
L 204.08192 321.998022 
z
" clip-path="url(#p3f81d66a26)" style="fill: #c5cdd2"/>
   </g>
   <g id="patch_61">
    <path d="M 193.767982 332.712149 
L 235.956827 332.712149 
L 235.956827 347.507848 
L 193.767982 347.507848 
z
" clip-path="url(#p3f81d66a26)" style="fill: #c5cdd2"/>
   </g>
   <g id="patch_62">
    <path d="M 170.740009 358.221975 
L 212.055636 358.221975 
L 212.055636 373.017674 
L 170.740009 373.017674 
z
" clip-path="url(#p3f81d66a26)" style="fill: #c5cdd2"/>
   </g>
   <g id="patch_63">
    <path d="M 177.835519 383.731801 
L 201.72174 383.731801 
L 201.72174 398.527501 
L 177.835519 398.527501 
z
" clip-path="url(#p3f81d66a26)" style="fill: #c5cdd2"/>
   </g>
   <g id="patch_64">
    <path d="M 171.658134 409.241628 
L 196.028366 409.241628 
L 196.028366 424.037327 
L 171.658134 424.037327 
z
" clip-path="url(#p3f81d66a26)" style="fill: #c5cdd2"/>
   </g>
   <g id="patch_65">
    <path d="M 167.646327 434.751454 
L 190.744157 434.751454 
L 190.744157 449.547153 
L 167.646327 449.547153 
z
" clip-path="url(#p3f81d66a26)" style="fill: #c5cdd2"/>
   </g>
   <g id="patch_66">
    <path d="M 142.163366 460.26128 
L 161.443993 460.26128 
L 161.443993 475.056979 
L 142.163366 475.056979 
z
" clip-path="url(#p3f81d66a26)" style="fill: #c5cdd2"/>
   </g>
   <g id="patch_67">
    <path d="M 89.291339 494.929134 
L 89.291339 57.741732 
" style="fill: none; stroke: #000000; stroke-width: 0.8; stroke-linejoin: miter; stroke-linecap: square"/>
   </g>
   <g id="patch_68">
    <path d="M 89.291339 494.929134 
L 428.598425 494.929134 
" style="fill: none; stroke: #000000; stroke-width: 0.8; stroke-linejoin: miter; stroke-linecap: square"/>
   </g>
   <g id="text_22">
    <!-- 64,059 -->
    <g style="fill: #333333" transform="translate(412.675941 88.609393) scale(0.12 -0.12)">
     <defs>
      <path id="MalgunGothic-18" d="M 3072 1403 
Q 3072 722 2636 322 
Q 2200 -78 1469 -78 
Q 828 -78 516 113 
L 516 650 
Q 994 344 1475 344 
Q 1969 344 2270 630 
Q 2572 916 2572 1372 
Q 2572 1838 2265 2092 
Q 1959 2347 1381 2347 
Q 994 2347 603 2300 
L 759 4600 
L 2869 4600 
L 2869 4147 
L 1206 4147 
L 1106 2763 
Q 1347 2784 1547 2784 
Q 2263 2784 2667 2414 
Q 3072 2044 3072 1403 
z
" transform="scale(0.015625)"/>
      <path id="MalgunGothic-1c" d="M 556 563 
Q 941 344 1366 344 
Q 1994 344 2347 855 
Q 2700 1366 2700 2313 
Q 2694 2306 2688 2313 
Q 2388 1713 1653 1713 
Q 1059 1713 682 2120 
Q 306 2528 306 3144 
Q 306 3806 711 4240 
Q 1116 4675 1772 4675 
Q 2466 4675 2833 4131 
Q 3200 3588 3200 2578 
Q 3200 1319 2717 620 
Q 2234 -78 1344 -78 
Q 881 -78 556 78 
L 556 563 
z
M 813 3219 
Q 813 2741 1063 2450 
Q 1313 2159 1759 2159 
Q 2147 2159 2406 2417 
Q 2666 2675 2666 3047 
Q 2666 3556 2411 3903 
Q 2156 4250 1725 4250 
Q 1322 4250 1067 3948 
Q 813 3647 813 3219 
z
" transform="scale(0.015625)"/>
     </defs>
     <use xlink:href="#MalgunGothic-19"/>
     <use xlink:href="#MalgunGothic-17" transform="translate(55.078125 0)"/>
     <use xlink:href="#MalgunGothic-f" transform="translate(110.15625 0)"/>
     <use xlink:href="#MalgunGothic-13" transform="translate(132.03125 0)"/>
     <use xlink:href="#MalgunGothic-18" transform="translate(187.109375 0)"/>
     <use xlink:href="#MalgunGothic-1c" transform="translate(242.1875 0)"/>
    </g>
   </g>
   <g id="text_23">
    <!-- 56,927 -->
    <g style="fill: #333333" transform="translate(377.088616 114.119219) scale(0.12 -0.12)">
     <defs>
      <path id="MalgunGothic-1a" d="M 3213 4297 
Q 2478 3006 2064 1918 
Q 1650 831 1550 0 
L 1009 0 
Q 1084 531 1290 1176 
Q 1497 1822 1815 2537 
Q 2134 3253 2631 4147 
L 291 4147 
L 291 4600 
L 3213 4600 
L 3213 4297 
z
" transform="scale(0.015625)"/>
     </defs>
     <use xlink:href="#MalgunGothic-18"/>
     <use xlink:href="#MalgunGothic-19" transform="translate(55.078125 0)"/>
     <use xlink:href="#MalgunGothic-f" transform="translate(110.15625 0)"/>
     <use xlink:href="#MalgunGothic-1c" transform="translate(132.03125 0)"/>
     <use xlink:href="#MalgunGothic-15" transform="translate(187.109375 0)"/>
     <use xlink:href="#MalgunGothic-1a" transform="translate(242.1875 0)"/>
    </g>
   </g>
   <g id="text_24">
    <!-- 48,076 -->
    <g style="fill: #333333" transform="translate(332.923806 139.629045) scale(0.12 -0.12)">
     <defs>
      <path id="MalgunGothic-1b" d="M 303 1281 
Q 303 1669 539 2011 
Q 775 2353 1153 2494 
Q 856 2647 675 2915 
Q 494 3184 494 3500 
Q 494 3828 659 4098 
Q 825 4369 1122 4522 
Q 1419 4675 1778 4675 
Q 2334 4675 2700 4342 
Q 3066 4009 3066 3500 
Q 3066 3181 2881 2914 
Q 2697 2647 2413 2494 
Q 2788 2350 3022 2009 
Q 3256 1669 3256 1281 
Q 3256 672 2843 297 
Q 2431 -78 1778 -78 
Q 1131 -78 717 301 
Q 303 681 303 1281 
z
M 809 1328 
Q 809 878 1081 611 
Q 1353 344 1781 344 
Q 2206 344 2482 619 
Q 2759 894 2759 1328 
Q 2759 1731 2482 2011 
Q 2206 2291 1781 2291 
Q 1372 2291 1090 2020 
Q 809 1750 809 1328 
z
M 1003 3459 
Q 1003 3125 1234 2900 
Q 1466 2675 1781 2675 
Q 2097 2675 2330 2900 
Q 2563 3125 2563 3459 
Q 2563 3803 2341 4026 
Q 2119 4250 1781 4250 
Q 1450 4250 1226 4029 
Q 1003 3809 1003 3459 
z
" transform="scale(0.015625)"/>
     </defs>
     <use xlink:href="#MalgunGothic-17"/>
     <use xlink:href="#MalgunGothic-1b" transform="translate(55.078125 0)"/>
     <use xlink:href="#MalgunGothic-f" transform="translate(110.15625 0)"/>
     <use xlink:href="#MalgunGothic-13" transform="translate(132.03125 0)"/>
     <use xlink:href="#MalgunGothic-1a" transform="translate(187.109375 0)"/>
     <use xlink:href="#MalgunGothic-19" transform="translate(242.1875 0)"/>
    </g>
   </g>
   <g id="text_25">
    <!-- 41,747 -->
    <g style="fill: #333333" transform="translate(301.343298 165.138871) scale(0.12 -0.12)">
     <defs>
      <path id="MalgunGothic-14" d="M 2231 0 
L 1734 0 
L 1734 3972 
Q 1591 3828 1266 3661 
Q 941 3494 672 3428 
L 672 3959 
Q 1016 4056 1409 4275 
Q 1803 4494 2031 4700 
L 2231 4700 
L 2231 0 
z
" transform="scale(0.015625)"/>
     </defs>
     <use xlink:href="#MalgunGothic-17"/>
     <use xlink:href="#MalgunGothic-14" transform="translate(55.078125 0)"/>
     <use xlink:href="#MalgunGothic-f" transform="translate(110.15625 0)"/>
     <use xlink:href="#MalgunGothic-1a" transform="translate(132.03125 0)"/>
     <use xlink:href="#MalgunGothic-17" transform="translate(187.109375 0)"/>
     <use xlink:href="#MalgunGothic-1a" transform="translate(242.1875 0)"/>
    </g>
   </g>
   <g id="text_26">
    <!-- 41,205 -->
    <g style="fill: #333333" transform="translate(298.638821 190.648698) scale(0.12 -0.12)">
     <use xlink:href="#MalgunGothic-17"/>
     <use xlink:href="#MalgunGothic-14" transform="translate(55.078125 0)"/>
     <use xlink:href="#MalgunGothic-f" transform="translate(110.15625 0)"/>
     <use xlink:href="#MalgunGothic-15" transform="translate(132.03125 0)"/>
     <use xlink:href="#MalgunGothic-13" transform="translate(187.109375 0)"/>
     <use xlink:href="#MalgunGothic-18" transform="translate(242.1875 0)"/>
    </g>
   </g>
   <g id="text_27">
    <!-- 37,226 -->
    <g style="fill: #333333" transform="translate(278.784367 216.158524) scale(0.12 -0.12)">
     <defs>
      <path id="MalgunGothic-16" d="M 416 719 
Q 891 344 1478 344 
Q 1959 344 2254 587 
Q 2550 831 2550 1247 
Q 2550 2169 1253 2169 
L 872 2169 
L 872 2591 
L 1234 2591 
Q 2388 2591 2388 3453 
Q 2388 4250 1509 4250 
Q 1022 4250 594 3916 
L 594 4413 
Q 1031 4675 1634 4675 
Q 2184 4675 2539 4372 
Q 2894 4069 2894 3581 
Q 2894 2678 1972 2409 
L 1972 2400 
Q 2469 2356 2764 2053 
Q 3059 1750 3059 1300 
Q 3059 672 2604 297 
Q 2150 -78 1450 -78 
Q 806 -78 416 169 
L 416 719 
z
" transform="scale(0.015625)"/>
     </defs>
     <use xlink:href="#MalgunGothic-16"/>
     <use xlink:href="#MalgunGothic-1a" transform="translate(55.078125 0)"/>
     <use xlink:href="#MalgunGothic-f" transform="translate(110.15625 0)"/>
     <use xlink:href="#MalgunGothic-15" transform="translate(132.03125 0)"/>
     <use xlink:href="#MalgunGothic-15" transform="translate(187.109375 0)"/>
     <use xlink:href="#MalgunGothic-19" transform="translate(242.1875 0)"/>
    </g>
   </g>
   <g id="text_28">
    <!-- 36,852 -->
    <g style="fill: #333333" transform="translate(276.918178 241.66835) scale(0.12 -0.12)">
     <use xlink:href="#MalgunGothic-16"/>
     <use xlink:href="#MalgunGothic-19" transform="translate(55.078125 0)"/>
     <use xlink:href="#MalgunGothic-f" transform="translate(110.15625 0)"/>
     <use xlink:href="#MalgunGothic-1b" transform="translate(132.03125 0)"/>
     <use xlink:href="#MalgunGothic-18" transform="translate(187.109375 0)"/>
     <use xlink:href="#MalgunGothic-15" transform="translate(242.1875 0)"/>
    </g>
   </g>
   <g id="text_29">
    <!-- 36,320 -->
    <g style="fill: #333333" transform="translate(274.263599 267.178176) scale(0.12 -0.12)">
     <use xlink:href="#MalgunGothic-16"/>
     <use xlink:href="#MalgunGothic-19" transform="translate(55.078125 0)"/>
     <use xlink:href="#MalgunGothic-f" transform="translate(110.15625 0)"/>
     <use xlink:href="#MalgunGothic-16" transform="translate(132.03125 0)"/>
     <use xlink:href="#MalgunGothic-15" transform="translate(187.109375 0)"/>
     <use xlink:href="#MalgunGothic-13" transform="translate(242.1875 0)"/>
    </g>
   </g>
   <g id="text_30">
    <!-- 31,015 -->
    <g style="fill: #333333" transform="translate(247.792656 292.688002) scale(0.12 -0.12)">
     <use xlink:href="#MalgunGothic-16"/>
     <use xlink:href="#MalgunGothic-14" transform="translate(55.078125 0)"/>
     <use xlink:href="#MalgunGothic-f" transform="translate(110.15625 0)"/>
     <use xlink:href="#MalgunGothic-13" transform="translate(132.03125 0)"/>
     <use xlink:href="#MalgunGothic-14" transform="translate(187.109375 0)"/>
     <use xlink:href="#MalgunGothic-18" transform="translate(242.1875 0)"/>
    </g>
   </g>
   <g id="text_31">
    <!-- 29,648 -->
    <g style="fill: #333333" transform="translate(240.971586 318.197829) scale(0.12 -0.12)">
     <use xlink:href="#MalgunGothic-15"/>
     <use xlink:href="#MalgunGothic-1c" transform="translate(55.078125 0)"/>
     <use xlink:href="#MalgunGothic-f" transform="translate(110.15625 0)"/>
     <use xlink:href="#MalgunGothic-19" transform="translate(132.03125 0)"/>
     <use xlink:href="#MalgunGothic-17" transform="translate(187.109375 0)"/>
     <use xlink:href="#MalgunGothic-1b" transform="translate(242.1875 0)"/>
    </g>
   </g>
   <g id="text_32">
    <!-- 29,393 -->
    <g style="fill: #333333" transform="translate(239.699184 343.707655) scale(0.12 -0.12)">
     <use xlink:href="#MalgunGothic-15"/>
     <use xlink:href="#MalgunGothic-1c" transform="translate(55.078125 0)"/>
     <use xlink:href="#MalgunGothic-f" transform="translate(110.15625 0)"/>
     <use xlink:href="#MalgunGothic-16" transform="translate(132.03125 0)"/>
     <use xlink:href="#MalgunGothic-1c" transform="translate(187.109375 0)"/>
     <use xlink:href="#MalgunGothic-16" transform="translate(242.1875 0)"/>
    </g>
   </g>
   <g id="text_33">
    <!-- 24,603 -->
    <g style="fill: #333333" transform="translate(215.797994 369.217481) scale(0.12 -0.12)">
     <use xlink:href="#MalgunGothic-15"/>
     <use xlink:href="#MalgunGothic-17" transform="translate(55.078125 0)"/>
     <use xlink:href="#MalgunGothic-f" transform="translate(110.15625 0)"/>
     <use xlink:href="#MalgunGothic-19" transform="translate(132.03125 0)"/>
     <use xlink:href="#MalgunGothic-13" transform="translate(187.109375 0)"/>
     <use xlink:href="#MalgunGothic-16" transform="translate(242.1875 0)"/>
    </g>
   </g>
   <g id="text_34">
    <!-- 22,532 -->
    <g style="fill: #333333" transform="translate(205.464097 394.727307) scale(0.12 -0.12)">
     <use xlink:href="#MalgunGothic-15"/>
     <use xlink:href="#MalgunGothic-15" transform="translate(55.078125 0)"/>
     <use xlink:href="#MalgunGothic-f" transform="translate(110.15625 0)"/>
     <use xlink:href="#MalgunGothic-18" transform="translate(132.03125 0)"/>
     <use xlink:href="#MalgunGothic-16" transform="translate(187.109375 0)"/>
     <use xlink:href="#MalgunGothic-15" transform="translate(242.1875 0)"/>
    </g>
   </g>
   <g id="text_35">
    <!-- 21,391 -->
    <g style="fill: #333333" transform="translate(199.770724 420.237133) scale(0.12 -0.12)">
     <use xlink:href="#MalgunGothic-15"/>
     <use xlink:href="#MalgunGothic-14" transform="translate(55.078125 0)"/>
     <use xlink:href="#MalgunGothic-f" transform="translate(110.15625 0)"/>
     <use xlink:href="#MalgunGothic-16" transform="translate(132.03125 0)"/>
     <use xlink:href="#MalgunGothic-1c" transform="translate(187.109375 0)"/>
     <use xlink:href="#MalgunGothic-14" transform="translate(242.1875 0)"/>
    </g>
   </g>
   <g id="text_36">
    <!-- 20,332 -->
    <g style="fill: #333333" transform="translate(194.486515 445.74696) scale(0.12 -0.12)">
     <use xlink:href="#MalgunGothic-15"/>
     <use xlink:href="#MalgunGothic-13" transform="translate(55.078125 0)"/>
     <use xlink:href="#MalgunGothic-f" transform="translate(110.15625 0)"/>
     <use xlink:href="#MalgunGothic-16" transform="translate(132.03125 0)"/>
     <use xlink:href="#MalgunGothic-16" transform="translate(187.109375 0)"/>
     <use xlink:href="#MalgunGothic-15" transform="translate(242.1875 0)"/>
    </g>
   </g>
   <g id="text_37">
    <!-- 14,460 -->
    <g style="fill: #333333" transform="translate(165.18635 471.256786) scale(0.12 -0.12)">
     <use xlink:href="#MalgunGothic-14"/>
     <use xlink:href="#MalgunGothic-17" transform="translate(55.078125 0)"/>
     <use xlink:href="#MalgunGothic-f" transform="translate(110.15625 0)"/>
     <use xlink:href="#MalgunGothic-17" transform="translate(132.03125 0)"/>
     <use xlink:href="#MalgunGothic-19" transform="translate(187.109375 0)"/>
     <use xlink:href="#MalgunGothic-13" transform="translate(242.1875 0)"/>
    </g>
   </g>
   <g id="legend_1">
    <g id="patch_69">
     <path d="M 29.28685 33.059606 
L 41.78685 33.059606 
L 41.78685 24.309606 
L 29.28685 24.309606 
z
" style="fill: #376c8a"/>
    </g>
    <g id="text_38">
     <!-- 질병 -->
     <g style="fill: #333333" transform="translate(46.16185 33.059606) scale(0.125 -0.125)">
      <defs>
       <path id="MalgunGothic-913" d="M 4941 2450 
L 4941 5466 
L 5409 5466 
L 5409 2450 
L 4941 2450 
z
M 3903 2663 
Q 3403 2894 2995 3236 
Q 2588 3578 2456 3878 
Q 2281 3513 1847 3113 
Q 1413 2713 991 2509 
L 659 2822 
Q 1375 3153 1801 3662 
Q 2228 4172 2228 4738 
L 2228 4844 
L 878 4844 
L 878 5259 
L 4044 5259 
L 4044 4844 
L 2675 4844 
L 2675 4738 
Q 2675 4188 3131 3706 
Q 3588 3225 4219 3022 
L 3903 2663 
z
M 1697 -422 
L 1697 1069 
L 4947 1069 
L 4947 1716 
L 1697 1716 
L 1697 2131 
L 5409 2131 
L 5409 666 
L 2156 666 
L 2156 -6 
L 5575 -6 
L 5575 -422 
L 1697 -422 
z
" transform="scale(0.015625)"/>
       <path id="MalgunGothic-63b" d="M 1038 2316 
L 1038 5253 
L 1497 5253 
L 1497 4200 
L 3366 4200 
L 3366 5253 
L 3828 5253 
L 3828 4556 
L 4947 4556 
L 4947 5466 
L 5416 5466 
L 5416 1881 
L 4947 1881 
L 4947 2925 
L 3828 2925 
L 3828 2316 
L 1038 2316 
z
M 3828 3334 
L 4947 3334 
L 4947 4141 
L 3828 4141 
L 3828 3334 
z
M 3366 3788 
L 1497 3788 
L 1497 2725 
L 3366 2725 
L 3366 3788 
z
M 3566 -538 
Q 2616 -538 2105 -217 
Q 1594 103 1594 622 
Q 1594 1138 2105 1458 
Q 2616 1778 3566 1778 
Q 4516 1778 5027 1456 
Q 5538 1134 5538 622 
Q 5538 106 5028 -216 
Q 4519 -538 3566 -538 
z
M 3566 1381 
Q 2853 1381 2473 1172 
Q 2094 963 2094 622 
Q 2094 288 2467 77 
Q 2841 -134 3566 -134 
Q 4288 -134 4663 77 
Q 5038 288 5038 622 
Q 5038 963 4656 1172 
Q 4275 1381 3566 1381 
z
" transform="scale(0.015625)"/>
      </defs>
      <use xlink:href="#MalgunGothic-913"/>
      <use xlink:href="#MalgunGothic-63b" transform="translate(100 0)"/>
     </g>
    </g>
    <g id="patch_70">
     <path d="M 80.53685 33.059606 
L 93.03685 33.059606 
L 93.03685 24.309606 
L 80.53685 24.309606 
z
" style="fill: #333333"/>
    </g>
    <g id="text_39">
     <!-- 질병외 -->
     <g style="fill: #333333" transform="translate(97.41185 33.059606) scale(0.125 -0.125)">
      <defs>
       <path id="MalgunGothic-839" d="M 4984 -563 
L 4984 5466 
L 5453 5466 
L 5453 -563 
L 4984 -563 
z
M 2803 2131 
L 2803 928 
Q 4206 963 4628 991 
L 4653 588 
Q 2922 488 531 488 
L 488 903 
Q 1475 903 2328 922 
L 2328 2125 
Q 1688 2197 1311 2592 
Q 934 2988 934 3566 
Q 934 4200 1401 4606 
Q 1869 5013 2572 5013 
Q 3269 5013 3714 4613 
Q 4159 4213 4159 3566 
Q 4159 2997 3795 2608 
Q 3431 2219 2803 2131 
z
M 2541 4603 
Q 2050 4603 1733 4314 
Q 1416 4025 1416 3566 
Q 1416 3113 1731 2820 
Q 2047 2528 2541 2528 
Q 3038 2528 3359 2822 
Q 3681 3116 3681 3566 
Q 3681 4022 3357 4312 
Q 3034 4603 2541 4603 
z
" transform="scale(0.015625)"/>
      </defs>
      <use xlink:href="#MalgunGothic-913"/>
      <use xlink:href="#MalgunGothic-63b" transform="translate(100 0)"/>
      <use xlink:href="#MalgunGothic-839" transform="translate(200 0)"/>
     </g>
    </g>
    <g id="patch_71">
     <path d="M 144.28685 33.059606 
L 156.78685 33.059606 
L 156.78685 24.309606 
L 144.28685 24.309606 
z
" style="fill: #b97937"/>
    </g>
    <g id="text_40">
     <!-- 부상 -->
     <g style="fill: #333333" transform="translate(161.16185 33.059606) scale(0.125 -0.125)">
      <use xlink:href="#MalgunGothic-655"/>
      <use xlink:href="#MalgunGothic-6d8" transform="translate(100 0)"/>
     </g>
    </g>
    <g id="patch_72">
     <path d="M 195.53685 33.059606 
L 208.03685 33.059606 
L 208.03685 24.309606 
L 195.53685 24.309606 
z
" style="fill: #c5cdd2"/>
    </g>
    <g id="text_41">
     <!-- 나머지 유형 -->
     <g style="fill: #333333" transform="translate(212.41185 33.059606) scale(0.125 -0.125)">
      <defs>
       <path id="MalgunGothic-39f" d="M 5094 2600 
L 5094 -563 
L 4628 -563 
L 4628 5466 
L 5094 5466 
L 5094 3016 
L 6138 3016 
L 6138 2600 
L 5094 2600 
z
M 4122 1375 
Q 3816 1300 3300 1279 
Q 2784 1259 844 1259 
L 844 4966 
L 1313 4966 
L 1313 1678 
L 2456 1672 
Q 3066 1672 3456 1698 
Q 3847 1725 4056 1766 
L 4122 1375 
z
" transform="scale(0.015625)"/>
       <path id="MalgunGothic-59e" d="M 819 1191 
L 819 4947 
L 3675 4947 
L 3675 3250 
L 4897 3250 
L 4897 5466 
L 5363 5466 
L 5363 -563 
L 4897 -563 
L 4897 2834 
L 3675 2834 
L 3675 1191 
L 819 1191 
z
M 3206 4531 
L 1288 4531 
L 1288 1606 
L 3206 1606 
L 3206 4531 
z
" transform="scale(0.015625)"/>
       <path id="MalgunGothic-90f" d="M 4884 -563 
L 4884 5466 
L 5350 5466 
L 5350 -563 
L 4884 -563 
z
M 3775 909 
Q 3228 1338 2822 1881 
Q 2416 2425 2297 2859 
Q 2178 2397 1756 1814 
Q 1334 1231 825 825 
L 475 1147 
Q 1191 1638 1625 2425 
Q 2059 3213 2059 4019 
L 2059 4525 
L 716 4525 
L 716 4941 
L 3884 4941 
L 3884 4525 
L 2528 4525 
L 2528 4038 
Q 2528 3238 2968 2459 
Q 3409 1681 4097 1269 
L 3775 909 
z
" transform="scale(0.015625)"/>
       <path id="MalgunGothic-86a" d="M 3200 2784 
Q 2278 2784 1768 3131 
Q 1259 3478 1259 4078 
Q 1259 4669 1775 5025 
Q 2291 5381 3200 5381 
Q 4128 5381 4640 5025 
Q 5153 4669 5153 4078 
Q 5153 3484 4640 3134 
Q 4128 2784 3200 2784 
z
M 3200 4978 
Q 2513 4978 2130 4736 
Q 1747 4494 1747 4078 
Q 1747 3669 2130 3425 
Q 2513 3181 3200 3181 
Q 3888 3181 4270 3425 
Q 4653 3669 4653 4078 
Q 4653 4494 4270 4736 
Q 3888 4978 3200 4978 
z
M 1913 -556 
L 1913 1672 
L 403 1672 
L 403 2094 
L 5997 2094 
L 5997 1672 
L 4488 1672 
L 4488 -556 
L 4019 -556 
L 4019 1672 
L 2381 1672 
L 2381 -556 
L 1913 -556 
z
" transform="scale(0.015625)"/>
       <path id="MalgunGothic-b49" d="M 494 4306 
L 494 4716 
L 2028 4716 
L 2028 5497 
L 2491 5497 
L 2491 4716 
L 4025 4716 
L 4025 4306 
L 494 4306 
z
M 3950 2463 
L 3950 2875 
L 4947 2875 
L 4947 3541 
L 3950 3541 
L 3950 3944 
L 4947 3944 
L 4947 5466 
L 5416 5466 
L 5416 1778 
L 4947 1778 
L 4947 2463 
L 3950 2463 
z
M 2253 1959 
Q 1584 1959 1192 2257 
Q 800 2556 800 3009 
Q 800 3459 1189 3754 
Q 1578 4050 2259 4050 
Q 2934 4050 3323 3754 
Q 3713 3459 3713 3009 
Q 3713 2556 3320 2257 
Q 2928 1959 2253 1959 
z
M 2259 3653 
Q 1797 3653 1533 3475 
Q 1269 3297 1269 3009 
Q 1269 2722 1534 2539 
Q 1800 2356 2259 2356 
Q 2719 2356 2981 2539 
Q 3244 2722 3244 3009 
Q 3244 3294 2983 3473 
Q 2722 3653 2259 3653 
z
M 3481 -519 
Q 2519 -519 2001 -226 
Q 1484 66 1484 563 
Q 1484 1059 2000 1348 
Q 2516 1638 3481 1638 
Q 4456 1638 4967 1347 
Q 5478 1056 5478 563 
Q 5478 66 4964 -226 
Q 4450 -519 3481 -519 
z
M 3481 1241 
Q 2753 1241 2368 1062 
Q 1984 884 1984 563 
Q 1984 241 2364 59 
Q 2744 -122 3481 -122 
Q 4222 -122 4603 61 
Q 4984 244 4984 563 
Q 4984 884 4598 1062 
Q 4213 1241 3481 1241 
z
" transform="scale(0.015625)"/>
      </defs>
      <use xlink:href="#MalgunGothic-39f"/>
      <use xlink:href="#MalgunGothic-59e" transform="translate(100 0)"/>
      <use xlink:href="#MalgunGothic-90f" transform="translate(200 0)"/>
      <use xlink:href="#MalgunGothic-3" transform="translate(300 0)"/>
      <use xlink:href="#MalgunGothic-86a" transform="translate(335.15625 0)"/>
      <use xlink:href="#MalgunGothic-b49" transform="translate(435.15625 0)"/>
     </g>
    </g>
   </g>
  </g>
 </g>
 <defs>
  <clipPath id="p3f81d66a26">
   <rect x="89.291339" y="57.741732" width="339.307087" height="437.187402"/>
  </clipPath>
 </defs>
</svg>
